<?xml version="1.0" encoding="UTF-8" standalone="no"?>
<!-- Created with Inkscape (http://www.inkscape.org/) -->

<svg
   xmlns:dc="http://purl.org/dc/elements/1.1/"
   xmlns:cc="http://creativecommons.org/ns#"
   xmlns:rdf="http://www.w3.org/1999/02/22-rdf-syntax-ns#"
   xmlns:svg="http://www.w3.org/2000/svg"
   xmlns="http://www.w3.org/2000/svg"
   xmlns:sodipodi="http://sodipodi.sourceforge.net/DTD/sodipodi-0.dtd"
   xmlns:inkscape="http://www.inkscape.org/namespaces/inkscape"
   width="300"
   height="300"
   viewBox="0 0 79.374998 79.375002"
   version="1.1"
   id="svg8"
   inkscape:version="0.92.4 (5da689c313, 2019-01-14)"
   sodipodi:docname="blank.svg">
  <defs
     id="defs2" />
  <sodipodi:namedview
     id="base"
     pagecolor="#ffffff"
     bordercolor="#666666"
     borderopacity="1.0"
     inkscape:pageopacity="0.0"
     inkscape:pageshadow="2"
     inkscape:zoom="0.175"
     inkscape:cx="-785.74074"
     inkscape:cy="196.37235"
     inkscape:document-units="px"
     inkscape:current-layer="g1152"
     showgrid="false"
     inkscape:window-width="1920"
     inkscape:window-height="1050"
     inkscape:window-x="0"
     inkscape:window-y="0"
     inkscape:window-maximized="1"
     units="px" />
  <metadata
     id="metadata5">
    <rdf:RDF>
      <cc:Work
         rdf:about="">
        <dc:format>image/svg+xml</dc:format>
        <dc:type
           rdf:resource="http://purl.org/dc/dcmitype/StillImage" />
        <dc:title></dc:title>
      </cc:Work>
    </rdf:RDF>
  </metadata>
  <g
     inkscape:label="Capa 1"
     inkscape:groupmode="layer"
     id="layer1"
     transform="translate(0,-217.62498)">
    <g
       id="g1152"
       transform="translate(53.949231,42.908092)">
      <path
         style="fill:#bebebe;stroke-width:0.34586141"
         d="m -53.949231,214.40439 v -39.6875 h 39.687502 39.687498 v 39.6875 39.6875 h -39.687498 -39.687502 z m 73.442416,16.09568 c 0.284561,-0.34139 0.367094,-7.19358 0.302401,-25.10665 l -0.08898,-24.63712 h -33.968337 -33.968343 l -0.08898,24.63712 c -0.06469,17.91307 0.01784,24.76526 0.302403,25.10665 0.325103,0.39003 6.041249,0.46954 33.754917,0.46954 27.713664,0 33.429809,-0.0796 33.754915,-0.46954 z m -57.844708,-8.16249 c 0,-0.56935 5.179412,-10.69406 5.470662,-10.69406 0.146899,0 1.354745,1.0923 2.684104,2.42732 1.643565,1.65059 2.638848,2.39602 3.110245,2.32949 0.650834,-0.0918 1.247693,-0.96282 7.041118,-10.27468 l 1.148649,-1.84622 3.709631,3.68204 c 2.040298,2.02512 3.955069,3.68205 4.255048,3.68205 0.325684,0 2.602106,-3.07247 5.6504637,-7.62638 2.807776,-4.19453 5.18610784,-7.5457 5.2851812,-7.44705 0.42270525,0.42088 10.4565201,25.59118 10.3012851,25.84126 -0.262223,0.42244 -48.656387,0.34906 -48.656387,-0.0738 z m 4.1153,-21.28327 c -1.322536,-0.81723 -2.035606,-2.23591 -2.035606,-4.04993 0,-4.07187 5.599009,-5.93458 7.95139,-2.64534 2.241786,3.13462 0.173506,7.28746 -3.618693,7.26586 -0.762556,-0.004 -1.796246,-0.26111 -2.297091,-0.57059 z"
         id="path1154"
         inkscape:connector-curvature="0" />
    </g>
    <path
       style="fill:#000000;stroke-width:0.26458332"
       d=""
       id="path1150"
       inkscape:connector-curvature="0" />
  </g>
</svg>
