<?xml version="1.0" encoding="UTF-8" standalone="no"?>
<!-- Created with Inkscape (http://www.inkscape.org/) -->

<svg
   xmlns:dc="http://purl.org/dc/elements/1.1/"
   xmlns:cc="http://creativecommons.org/ns#"
   xmlns:rdf="http://www.w3.org/1999/02/22-rdf-syntax-ns#"
   xmlns:svg="http://www.w3.org/2000/svg"
   xmlns="http://www.w3.org/2000/svg"
   xmlns:sodipodi="http://sodipodi.sourceforge.net/DTD/sodipodi-0.dtd"
   xmlns:inkscape="http://www.inkscape.org/namespaces/inkscape"
   version="1.1"
   id="svg2"
   xml:space="preserve"
   width="85.333336"
   height="85.333336"
   viewBox="0 0 85.333336 85.333336"
   sodipodi:docname="key.svg"
   inkscape:version="0.92.4 (5da689c313, 2019-01-14)"><metadata
     id="metadata8"><rdf:RDF><cc:Work
         rdf:about=""><dc:format>image/svg+xml</dc:format><dc:type
           rdf:resource="http://purl.org/dc/dcmitype/StillImage" /><dc:title></dc:title></cc:Work></rdf:RDF></metadata><defs
     id="defs6" /><sodipodi:namedview
     pagecolor="#ffffff"
     bordercolor="#666666"
     borderopacity="1"
     objecttolerance="10"
     gridtolerance="10"
     guidetolerance="10"
     inkscape:pageopacity="0"
     inkscape:pageshadow="2"
     inkscape:window-width="1920"
     inkscape:window-height="1043"
     id="namedview4"
     showgrid="false"
     inkscape:zoom="3.9111843"
     inkscape:cx="-32.422867"
     inkscape:cy="75.692143"
     inkscape:window-x="0"
     inkscape:window-y="0"
     inkscape:window-maximized="1"
     inkscape:current-layer="g12" /><g
     id="g10"
     inkscape:groupmode="layer"
     inkscape:label="ink_ext_XXXXXX"
     transform="matrix(1.3333333,0,0,-1.3333333,0,85.333333)"><g
       id="g12"
       transform="scale(0.1)"
       style="opacity:0.99"><path
         d="m 260,140 c -55.141,0 -100,44.859 -100,100 0,55.141 44.859,100 100,100 7.18,0 18.219,-2 25.359,-3.5 l 138.039,121.02 c 1.84,1.601 4.18,2.48 6.602,2.48 h 40 c 5.52,0 10,-4.48 10,-10 v -40 c 0,-4.68 -3.262,-8.762 -7.84,-9.762 l -29.922,-6.636 -1.418,-45.582 c -0.16,-5.122 -4.179,-9.301 -9.3,-9.661 l -38.2,-2.66 0.84,-37.961 c 0.102,-4.359 -2.64,-8.297 -6.781,-9.699 L 353.34,276.48 C 356.879,267.359 360,256.379 360,240 360,184.859 315.141,140 260,140 m -30,100 c -16.559,0 -30,-13.441 -30,-30 0,-16.559 13.441,-30 30,-30 16.559,0 30,13.441 30,30 0,4.559 -1.02,8.879 -2.84,12.762 C 252.359,232.941 242,240 230,240"
         style="fill:#ffeb71;fill-opacity:0.99215686;fill-rule:nonzero;stroke:#000000;stroke-opacity:1;stroke-width:15.48750039;stroke-miterlimit:4;stroke-dasharray:none"
         id="path16"
         inkscape:connector-curvature="0" /></g></g></svg>