<?xml version="1.0" encoding="UTF-8" standalone="no"?>
<svg
   xmlns:dc="http://purl.org/dc/elements/1.1/"
   xmlns:cc="http://creativecommons.org/ns#"
   xmlns:rdf="http://www.w3.org/1999/02/22-rdf-syntax-ns#"
   xmlns:svg="http://www.w3.org/2000/svg"
   xmlns="http://www.w3.org/2000/svg"
   xmlns:sodipodi="http://sodipodi.sourceforge.net/DTD/sodipodi-0.dtd"
   xmlns:inkscape="http://www.inkscape.org/namespaces/inkscape"
   data-name="Layer 1"
   viewBox="0 0 99.999997 100"
   x="0px"
   y="0px"
   version="1.1"
   id="svg4008"
   sodipodi:docname="noun_database_1428794.svg"
   width="100"
   height="100"
   inkscape:version="0.92.2 5c3e80d, 2017-08-06">
  <metadata
     id="metadata4014">
    <rdf:RDF>
      <cc:Work
         rdf:about="">
        <dc:format>image/svg+xml</dc:format>
        <dc:type
           rdf:resource="http://purl.org/dc/dcmitype/StillImage" />
        <dc:title>28</dc:title>
      </cc:Work>
    </rdf:RDF>
  </metadata>
  <defs
     id="defs4012" />
  <sodipodi:namedview
     pagecolor="#ffffff"
     bordercolor="#666666"
     borderopacity="1"
     objecttolerance="10"
     gridtolerance="10"
     guidetolerance="10"
     inkscape:pageopacity="0"
     inkscape:pageshadow="2"
     inkscape:window-width="640"
     inkscape:window-height="480"
     id="namedview4010"
     showgrid="false"
     fit-margin-top="10"
     fit-margin-left="10"
     fit-margin-right="10"
     fit-margin-bottom="10"
     inkscape:zoom="1.888"
     inkscape:cx="57.048356"
     inkscape:cy="60.482704"
     inkscape:window-x="0"
     inkscape:window-y="0"
     inkscape:window-maximized="0"
     inkscape:current-layer="svg4008" />
  <title
     id="title3980">28</title>
  <g
     data-name="Group"
     id="g4002"
     transform="matrix(1.0291239,0,0,1.0291239,-1.7630422,-1.6502753)">
    <path
       data-name="Path"
       d="m 74.1,19.8 a 1,1 0 0 0 -1,1 v 5.1 a 1,1 0 1 0 2,0 v -5.1 a 1,1 0 0 0 -1,-1 z"
       id="path3982"
       inkscape:connector-curvature="0" />
    <path
       data-name="Path"
       d="m 83.3,19.8 a 1,1 0 0 0 -1,1 v 5.1 a 1,1 0 1 0 2,0 v -5.1 a 1,1 0 0 0 -1,-1 z"
       id="path3984"
       inkscape:connector-curvature="0" />
    <path
       data-name="Compound Path"
       d="m 53.5,17.3 a 6.1,6.1 0 1 0 6.1,6.1 6.1,6.1 0 0 0 -6.1,-6.1 z m 0,10.2 a 4.1,4.1 0 1 1 4.1,-4.1 4.1,4.1 0 0 1 -4.1,4.1 z"
       id="path3986"
       inkscape:connector-curvature="0" />
    <path
       data-name="Path"
       d="m 74.1,46.5 a 1,1 0 0 0 -1,1 v 5.1 a 1,1 0 1 0 2,0 v -5.1 a 1,1 0 0 0 -1,-1 z"
       id="path3988"
       inkscape:connector-curvature="0" />
    <path
       data-name="Path"
       d="m 83.3,46.5 a 1,1 0 0 0 -1,1 v 5.1 a 1,1 0 1 0 2,0 v -5.1 a 1,1 0 0 0 -1,-1 z"
       id="path3990"
       inkscape:connector-curvature="0" />
    <path
       data-name="Compound Path"
       d="m 53.5,43.9 a 6.1,6.1 0 1 0 6.1,6.1 6.1,6.1 0 0 0 -6.1,-6.1 z m 0,10.2 a 4.1,4.1 0 1 1 4.1,-4.1 4.1,4.1 0 0 1 -4.1,4.1 z"
       id="path3992"
       inkscape:connector-curvature="0" />
    <path
       data-name="Path"
       d="m 74.1,73.1 a 1,1 0 0 0 -1,1 v 5.1 a 1,1 0 0 0 2,0 v -5.1 a 1,1 0 0 0 -1,-1 z"
       id="path3994"
       inkscape:connector-curvature="0" />
    <path
       data-name="Path"
       d="m 83.3,73.1 a 1,1 0 0 0 -1,1 v 5.1 a 1,1 0 0 0 2,0 v -5.1 a 1,1 0 0 0 -1,-1 z"
       id="path3996"
       inkscape:connector-curvature="0" />
    <path
       data-name="Compound Path"
       d="m 53.5,70.5 a 6.1,6.1 0 1 0 6.1,6.1 6.1,6.1 0 0 0 -6.1,-6.1 z m 0,10.2 a 4.1,4.1 0 1 1 4.1,-4.1 4.1,4.1 0 0 1 -4.1,4.1 z"
       id="path3998"
       inkscape:connector-curvature="0" />
    <path
       data-name="Compound Path"
       d="m 14.1,72.7 3,3 a 4,4 0 0 0 5.4,0.2 l 2.9,-2.4 a 27.3,27.3 0 0 0 7.9,3.3 l 0.3,3.8 a 4,4 0 0 0 4,3.6 h 1.1 a 8,8 0 0 0 7.9,6.8 h 39.8 a 8,8 0 0 0 8,-8 V 17.1 a 8,8 0 0 0 -8,-8 H 46.7 a 8,8 0 0 0 -7.9,6.8 h -1.1 a 4,4 0 0 0 -4,3.6 l -0.3,3.8 a 27.3,27.3 0 0 0 -7.9,3.3 l -2.9,-2.4 a 4,4 0 0 0 -5.4,0.2 l -3,3 A 4,4 0 0 0 14,32.8 l 2.4,2.9 A 27.3,27.3 0 0 0 13,43.5 l -3.8,0.3 a 4,4 0 0 0 -3.6,4 v 4.3 a 4,4 0 0 0 3.6,4 l 3.8,0.3 a 27.3,27.3 0 0 0 3.3,7.9 l -2.4,2.9 a 4,4 0 0 0 0.2,5.5 z M 38.7,58 a 8.1,8.1 0 0 1 0,-15.9 z M 86.4,89 H 46.7 a 6,6 0 0 1 -6,-6 V 64.3 h 51.7 v 18.6 a 6,6 0 0 1 -6,6 z M 40.7,62.3 V 37.7 h 51.7 v 24.6 z m 0,-45.3 a 6,6 0 0 1 6,-6 h 39.7 a 6,6 0 0 1 6,6 V 35.7 H 40.7 Z m -25.3,51.6 2.9,-3.5 a 1,1 0 0 0 0.1,-1.2 25.3,25.3 0 0 1 -3.6,-8.6 1,1 0 0 0 -0.9,-0.8 L 9.4,54.1 a 2,2 0 0 1 -1.8,-2 v -4.2 a 2,2 0 0 1 1.8,-2 l 4.5,-0.4 a 1,1 0 0 0 0.9,-0.8 25.3,25.3 0 0 1 3.6,-8.6 1,1 0 0 0 -0.1,-1.2 l -2.9,-3.5 a 2,2 0 0 1 0.1,-2.7 l 3,-3 a 2,2 0 0 1 2.7,-0.1 l 3.5,2.9 a 1,1 0 0 0 1.2,0.1 25.3,25.3 0 0 1 8.6,-3.6 1,1 0 0 0 0.8,-0.9 l 0.4,-4.5 a 2,2 0 0 1 2,-1.8 h 1 V 40 a 10.1,10.1 0 0 0 0,20 v 22.2 h -1 a 2,2 0 0 1 -2,-1.8 L 35.3,75.9 A 1,1 0 0 0 34.5,75 25.3,25.3 0 0 1 25.9,71.4 1,1 0 0 0 24.7,71.5 l -3.5,2.9 a 2,2 0 0 1 -2.7,-0.1 l -3,-3 a 2,2 0 0 1 -0.1,-2.7 z"
       id="path4000"
       inkscape:connector-curvature="0" />
  </g>
</svg>
