<?xml version="1.0" ?><svg id="Layer_1" style="enable-background:new 0 0 512 512;" version="1.1" viewBox="0 0 512 512" xml:space="preserve" xmlns="http://www.w3.org/2000/svg" xmlns:xlink="http://www.w3.org/1999/xlink"><g id="XMLID_4926_"><g id="XMLID_4921_"><g id="XMLID_4931_"><polyline id="XMLID_4936_" points="-6887,-3307.9 -6982.9,-3307.9 -6982.9,-3404.3    "/><g id="XMLID_4932_"><path d="M-6879.7-2911.5h-388.1v-500h295.7l92.4,96.7V-2911.5z M-7253.3-2926.1h359V-3309l-84.1-88h-274.9      V-2926.1z" id="XMLID_4933_"/></g></g><g id="XMLID_4927_"><path d="M-6921.2-2953.1h-305.3v-272.3h305.3V-2953.1z M-7211.8-2967.7h276.1v-243.2h-276.1V-2967.7z" id="XMLID_4928_"/></g><g id="XMLID_4924_"><rect height="60.8" id="XMLID_4925_" transform="matrix(0.7516 -0.6596 0.6596 0.7516 398.034 -5322.5303)" width="14.5" x="-6875.1" y="-3220.1"/></g><g id="XMLID_4922_"><rect height="14.5" id="XMLID_4923_" transform="matrix(0.6596 -0.7516 0.7516 0.6596 -80.4516 -6557.1328)" width="60.8" x="-7310.2" y="-3197"/></g></g><path d="M-7305.3-3171.7v164.9h463v-164.9H-7305.3z M-7143.6-3069.4c2.7,3.6,6.3,5.3,10.9,5.3   c4.5,0,7.9-1.2,10.3-3.5c2.3-2.4,3.5-5.8,3.5-10.2h10.6l0.1,0.3c0.1,6.7-2,12-6.5,16.1c-4.4,4.1-10.5,6.1-18,6.1   c-7.7,0-13.9-2.6-18.7-7.8c-4.8-5.2-7.2-11.8-7.2-19.9v-12.6c0-8,2.4-14.7,7.1-19.9s10.9-7.8,18.5-7.8c7.8,0,13.9,2,18.4,5.9   c4.5,4,6.6,9.4,6.5,16.3l-0.1,0.3h-10.7c0-4.4-1.2-7.8-3.6-10.1c-2.4-2.3-5.9-3.5-10.5-3.5c-4.5,0-8,1.8-10.6,5.3   c-2.6,3.6-3.9,8-3.9,13.5v12.7C-7147.5-3077.5-7146.2-3073-7143.6-3069.4z M-7055.4-3060.2c-4.3,3.3-9.9,4.9-16.9,4.9   c-6.7,0-12.6-1.8-17.6-5.4c-5-3.6-7.4-8.6-7.3-15.1l0.1-0.3h10.6c0,4,1.4,6.9,4.1,9c2.7,2,6.1,3,10,3c3.9,0,6.9-0.8,9.1-2.5   c2.2-1.6,3.2-3.9,3.2-6.7c0-2.8-1-5-2.9-6.8c-2-1.8-5.4-3.3-10.4-4.7c-7.1-2-12.6-4.5-16.4-7.7c-3.9-3.2-5.8-7.4-5.8-12.5   c0-5.3,2.1-9.7,6.4-13.2c4.2-3.4,9.7-5.2,16.3-5.2c7.1,0,12.8,1.9,17.1,5.7c4.3,3.8,6.3,8.6,6.2,14.2l-0.1,0.3h-10.6   c0-3.5-1.2-6.2-3.5-8.3c-2.3-2.1-5.4-3.1-9.2-3.1c-3.7,0-6.6,0.9-8.6,2.6c-2,1.8-3,4-3,6.8c0,2.5,1.1,4.6,3.3,6.3   c2.2,1.6,5.9,3.2,11,4.7c6.9,1.9,12.2,4.6,15.8,7.9c3.6,3.3,5.4,7.6,5.4,12.8C-7048.9-3067.8-7051.1-3063.5-7055.4-3060.2z    M-6995.5-3060.2c-4.3,3.3-9.9,4.9-16.9,4.9c-6.7,0-12.6-1.8-17.6-5.4c-5-3.6-7.4-8.6-7.3-15.1l0.1-0.3h10.6c0,4,1.4,6.9,4.1,9   c2.7,2,6.1,3,10,3c3.9,0,6.9-0.8,9.1-2.5c2.2-1.6,3.2-3.9,3.2-6.7c0-2.8-1-5-2.9-6.8c-2-1.8-5.4-3.3-10.4-4.7   c-7.1-2-12.6-4.5-16.4-7.7c-3.9-3.2-5.8-7.4-5.8-12.5c0-5.3,2.1-9.7,6.4-13.2c4.2-3.4,9.7-5.2,16.3-5.2c7.1,0,12.8,1.9,17.1,5.7   c4.3,3.8,6.3,8.6,6.2,14.2l-0.1,0.3h-10.6c0-3.5-1.2-6.2-3.5-8.3c-2.3-2.1-5.4-3.1-9.2-3.1c-3.7,0-6.6,0.9-8.6,2.6   c-2,1.8-3,4-3,6.8c0,2.5,1.1,4.6,3.3,6.3c2.2,1.6,5.9,3.2,11,4.7c6.9,1.9,12.2,4.6,15.8,7.9s5.4,7.6,5.4,12.8   C-6989-3067.8-6991.2-3063.5-6995.5-3060.2z" id="XMLID_7465_"/></g><g id="XMLID_2255_"><g id="XMLID_499_"><g id="XMLID_509_"><g id="XMLID_510_"><path d="M429.5,114.9h-58.3c-18.7,0-33.8-15.3-33.8-34.1V22" id="XMLID_513_"/><g id="XMLID_511_"><path d="M396.8,497H101.5c-21.9,0-39.7-17.8-39.7-39.7V348.5h14v108.8c0,14.2,11.5,25.7,25.7,25.7h295.3       c14.2,0,25.7-11.5,25.7-25.7V113.9L341.3,29H101.5c-14.2,0-25.7,11.5-25.7,25.7v112.6h-14V54.7c0-21.9,17.8-39.7,39.7-39.7       h245.8l89.2,93.3v349.1C436.5,479.2,418.7,497,396.8,497z" id="XMLID_512_"/></g></g></g><g id="XMLID_505_"><path d="M482.5,447.8h-279c-13,0-23.5-10.6-23.5-23.5V322.1c0-13,10.6-23.5,23.5-23.5h279     c13,0,23.5,10.6,23.5,23.5v102.2C506,437.2,495.4,447.8,482.5,447.8z M203.5,312.6c-5.3,0-9.5,4.3-9.5,9.5v102.2     c0,5.3,4.3,9.5,9.5,9.5h279c5.3,0,9.5-4.3,9.5-9.5V322.1c0-5.3-4.3-9.5-9.5-9.5H203.5z" id="XMLID_506_"/></g><rect height="129.2" id="XMLID_504_" width="65.7" x="429.5" y="305.6"/><g id="XMLID_500_"><path d="M107.9,176.9v-9.8c0-2.6-2.1-4.7-4.7-4.7H34.4c-2.6,0-4.7,2.1-4.7,4.7v9.8H107.9z" id="XMLID_503_"/><rect height="6.1" id="XMLID_502_" width="78.2" x="29.7" y="187.6"/><path d="M126.9,279.8h-14.3c-2.6,0-4.7-2.1-4.7-4.7v-62H29.7v62c0,2.6-2.1,4.7-4.7,4.7H10.7     c-3.8,0-6,4.2-3.8,7.3L65,371.2c1.9,2.7,5.8,2.7,7.7,0l58.1-84.1C132.9,284,130.7,279.8,126.9,279.8z" id="XMLID_501_"/></g></g><g id="XMLID_2808_"><path d="M267.1,385l0.1,0.3c0.1,6.9-2.1,12.4-6.7,16.6c-4.6,4.2-10.8,6.3-18.6,6.3c-7.9,0-14.3-2.7-19.3-8    c-4.9-5.3-7.4-12.2-7.4-20.5v-12.9c0-8.3,2.4-15.1,7.3-20.5c4.9-5.4,11.2-8.1,19-8.1c8,0,14.3,2,18.9,6.1    c4.6,4.1,6.8,9.7,6.7,16.8l-0.1,0.3h-11c0-4.5-1.2-8-3.7-10.4c-2.5-2.4-6.1-3.6-10.8-3.6c-4.6,0-8.3,1.8-11,5.5    c-2.7,3.7-4,8.3-4,13.9v13c0,5.6,1.4,10.3,4.1,13.9c2.7,3.7,6.5,5.5,11.2,5.5c4.6,0,8.2-1.2,10.6-3.6c2.4-2.4,3.6-5.9,3.6-10.5    H267.1z" id="XMLID_2815_"/><path d="M281,407.2v-68h22.5c8.6,0,15.6,2.7,21.1,8.1c5.4,5.4,8.1,12.3,8.1,20.8v10.3c0,8.5-2.7,15.4-8.1,20.8    c-5.4,5.4-12.4,8-21.1,8H281z M292.4,348.3v49.9h11.1c5.5,0,9.8-1.8,13-5.5c3.2-3.7,4.8-8.4,4.8-14.2V368c0-5.7-1.6-10.4-4.8-14.1    c-3.2-3.7-7.5-5.5-13-5.5H292.4z" id="XMLID_2812_"/><path d="M359.4,379v28.2H348v-68h23.4c7.6,0,13.4,1.7,17.6,5.1c4.1,3.4,6.2,8.3,6.2,14.7c0,3.5-0.9,6.6-2.7,9.1    c-1.8,2.5-4.5,4.6-8,6.1c3.8,1.2,6.6,3.2,8.3,5.9c1.7,2.7,2.5,6.1,2.5,10.2v5.7c0,2,0.2,3.9,0.7,5.8c0.5,1.9,1.3,3.3,2.5,4.3v1.1    h-11.7c-1.2-1-2-2.6-2.4-4.8c-0.3-2.2-0.5-4.4-0.5-6.5v-5.5c0-3.5-1-6.3-3-8.3c-2-2.1-4.7-3.1-8.2-3.1H359.4z M359.4,369.9h11.4    c4.5,0,7.9-0.9,10-2.6c2.1-1.7,3.1-4.4,3.1-8c0-3.4-1-6.1-3.1-8.1c-2.1-1.9-5.2-2.9-9.4-2.9h-12.1V369.9z" id="XMLID_2809_"/></g></g></svg>