<?xml version="1.0" encoding="UTF-8" standalone="no"?>
<svg
   xmlns:dc="http://purl.org/dc/elements/1.1/"
   xmlns:cc="http://creativecommons.org/ns#"
   xmlns:rdf="http://www.w3.org/1999/02/22-rdf-syntax-ns#"
   xmlns:svg="http://www.w3.org/2000/svg"
   xmlns="http://www.w3.org/2000/svg"
   xmlns:sodipodi="http://sodipodi.sourceforge.net/DTD/sodipodi-0.dtd"
   xmlns:inkscape="http://www.inkscape.org/namespaces/inkscape"
   id="Layer_1"
   style="enable-background:new 0 0 512 512;"
   version="1.1"
   viewBox="0 0 512 512"
   xml:space="preserve"
   sodipodi:docname="odt.svg"
   inkscape:version="0.92.4 (5da689c313, 2019-01-14)"><metadata
     id="metadata38"><rdf:RDF><cc:Work
         rdf:about=""><dc:format>image/svg+xml</dc:format><dc:type
           rdf:resource="http://purl.org/dc/dcmitype/StillImage" /></cc:Work></rdf:RDF></metadata><defs
     id="defs36" /><sodipodi:namedview
     pagecolor="#ffffff"
     bordercolor="#666666"
     borderopacity="1"
     objecttolerance="10"
     gridtolerance="10"
     guidetolerance="10"
     inkscape:pageopacity="0"
     inkscape:pageshadow="2"
     inkscape:window-width="1920"
     inkscape:window-height="1043"
     id="namedview34"
     showgrid="false"
     inkscape:zoom="0.921875"
     inkscape:cx="160.95633"
     inkscape:cy="238.74591"
     inkscape:window-x="0"
     inkscape:window-y="0"
     inkscape:window-maximized="1"
     inkscape:current-layer="XMLID_66_" /><g
     id="XMLID_4926_"><g
       id="XMLID_4921_"><g
         id="XMLID_4931_"><polyline
           id="XMLID_4936_"
           points="-6887,-3307.9 -6982.9,-3307.9 -6982.9,-3404.3    " /><g
           id="XMLID_4932_"><path
             d="M-6879.7-2911.5h-388.1v-500h295.7l92.4,96.7V-2911.5z M-7253.3-2926.1h359V-3309l-84.1-88h-274.9      V-2926.1z"
             id="XMLID_4933_" /></g></g><g
         id="XMLID_4927_"><path
           d="M-6921.2-2953.1h-305.3v-272.3h305.3V-2953.1z M-7211.8-2967.7h276.1v-243.2h-276.1V-2967.7z"
           id="XMLID_4928_" /></g><g
         id="XMLID_4924_"><rect
           height="60.8"
           id="XMLID_4925_"
           transform="matrix(0.7516 -0.6596 0.6596 0.7516 398.034 -5322.5303)"
           width="14.5"
           x="-6875.1"
           y="-3220.1" /></g><g
         id="XMLID_4922_"><rect
           height="14.5"
           id="XMLID_4923_"
           transform="matrix(0.6596 -0.7516 0.7516 0.6596 -80.4516 -6557.1328)"
           width="60.8"
           x="-7310.2"
           y="-3197" /></g></g><path
       d="M-7305.3-3171.7v164.9h463v-164.9H-7305.3z M-7143.6-3069.4c2.7,3.6,6.3,5.3,10.9,5.3   c4.5,0,7.9-1.2,10.3-3.5c2.3-2.4,3.5-5.8,3.5-10.2h10.6l0.1,0.3c0.1,6.7-2,12-6.5,16.1c-4.4,4.1-10.5,6.1-18,6.1   c-7.7,0-13.9-2.6-18.7-7.8c-4.8-5.2-7.2-11.8-7.2-19.9v-12.6c0-8,2.4-14.7,7.1-19.9s10.9-7.8,18.5-7.8c7.8,0,13.9,2,18.4,5.9   c4.5,4,6.6,9.4,6.5,16.3l-0.1,0.3h-10.7c0-4.4-1.2-7.8-3.6-10.1c-2.4-2.3-5.9-3.5-10.5-3.5c-4.5,0-8,1.8-10.6,5.3   c-2.6,3.6-3.9,8-3.9,13.5v12.7C-7147.5-3077.5-7146.2-3073-7143.6-3069.4z M-7055.4-3060.2c-4.3,3.3-9.9,4.9-16.9,4.9   c-6.7,0-12.6-1.8-17.6-5.4c-5-3.6-7.4-8.6-7.3-15.1l0.1-0.3h10.6c0,4,1.4,6.9,4.1,9c2.7,2,6.1,3,10,3c3.9,0,6.9-0.8,9.1-2.5   c2.2-1.6,3.2-3.9,3.2-6.7c0-2.8-1-5-2.9-6.8c-2-1.8-5.4-3.3-10.4-4.7c-7.1-2-12.6-4.5-16.4-7.7c-3.9-3.2-5.8-7.4-5.8-12.5   c0-5.3,2.1-9.7,6.4-13.2c4.2-3.4,9.7-5.2,16.3-5.2c7.1,0,12.8,1.9,17.1,5.7c4.3,3.8,6.3,8.6,6.2,14.2l-0.1,0.3h-10.6   c0-3.5-1.2-6.2-3.5-8.3c-2.3-2.1-5.4-3.1-9.2-3.1c-3.7,0-6.6,0.9-8.6,2.6c-2,1.8-3,4-3,6.8c0,2.5,1.1,4.6,3.3,6.3   c2.2,1.6,5.9,3.2,11,4.7c6.9,1.9,12.2,4.6,15.8,7.9c3.6,3.3,5.4,7.6,5.4,12.8C-7048.9-3067.8-7051.1-3063.5-7055.4-3060.2z    M-6995.5-3060.2c-4.3,3.3-9.9,4.9-16.9,4.9c-6.7,0-12.6-1.8-17.6-5.4c-5-3.6-7.4-8.6-7.3-15.1l0.1-0.3h10.6c0,4,1.4,6.9,4.1,9   c2.7,2,6.1,3,10,3c3.9,0,6.9-0.8,9.1-2.5c2.2-1.6,3.2-3.9,3.2-6.7c0-2.8-1-5-2.9-6.8c-2-1.8-5.4-3.3-10.4-4.7   c-7.1-2-12.6-4.5-16.4-7.7c-3.9-3.2-5.8-7.4-5.8-12.5c0-5.3,2.1-9.7,6.4-13.2c4.2-3.4,9.7-5.2,16.3-5.2c7.1,0,12.8,1.9,17.1,5.7   c4.3,3.8,6.3,8.6,6.2,14.2l-0.1,0.3h-10.6c0-3.5-1.2-6.2-3.5-8.3c-2.3-2.1-5.4-3.1-9.2-3.1c-3.7,0-6.6,0.9-8.6,2.6   c-2,1.8-3,4-3,6.8c0,2.5,1.1,4.6,3.3,6.3c2.2,1.6,5.9,3.2,11,4.7c6.9,1.9,12.2,4.6,15.8,7.9s5.4,7.6,5.4,12.8   C-6989-3067.8-6991.2-3063.5-6995.5-3060.2z"
       id="XMLID_7465_" /></g><g
     id="XMLID_1986_"><g
       id="XMLID_55_"><g
         id="XMLID_65_"><g
           id="XMLID_66_"><path
             d="M429.5,114.9h-58.3c-18.7,0-33.8-15.3-33.8-34.1V22"
             id="XMLID_69_" /><path
             inkscape:connector-curvature="0"
             id="XMLID_68_"
             d="M 396.8,497 H 101.5 C 79.6,497 61.8,479.2 61.8,457.3 V 348.5 h 14 v 108.8 c 0,14.2 11.5,25.7 25.7,25.7 h 295.3 c 14.2,0 25.7,-11.5 25.7,-25.7 V 113.9 L 341.3,29 H 101.5 C 87.3,29 75.8,40.5 75.8,54.7 v 293.8 h -14 V 54.7 C 61.8,32.8 79.6,15 101.5,15 h 245.8 l 89.2,93.3 v 349.1 c 0,21.8 -17.8,39.6 -39.7,39.6 z"
             sodipodi:nodetypes="sssccssssccssccssccss" /></g></g><g
         id="XMLID_61_"><path
           d="M482.5,447.8h-279c-13,0-23.5-10.6-23.5-23.5V322.1c0-13,10.6-23.5,23.5-23.5h279     c13,0,23.5,10.6,23.5,23.5v102.2C506,437.2,495.4,447.8,482.5,447.8z M203.5,312.6c-5.3,0-9.5,4.3-9.5,9.5v102.2     c0,5.3,4.3,9.5,9.5,9.5h279c5.3,0,9.5-4.3,9.5-9.5V322.1c0-5.3-4.3-9.5-9.5-9.5H203.5z"
           id="XMLID_62_" /></g><rect
         height="129.2"
         id="XMLID_60_"
         width="65.7"
         x="429.5"
         y="305.6" /></g></g><text
     xml:space="preserve"
     style="font-style:normal;font-variant:normal;font-weight:normal;font-stretch:normal;font-size:106.66666412px;line-height:1.25;font-family:'Courier 10 Pitch';-inkscape-font-specification:'Courier 10 Pitch, Normal';font-variant-ligatures:normal;font-variant-caps:normal;font-variant-numeric:normal;font-feature-settings:normal;text-align:start;letter-spacing:0px;word-spacing:0px;writing-mode:lr-tb;text-anchor:start;fill:#000000;fill-opacity:1;stroke:none;stroke-width:0.913831"
     x="241.87599"
     y="368.4133"
     id="text847"
     transform="scale(0.91383104,1.0942942)"><tspan
       sodipodi:role="line"
       id="tspan845"
       x="241.87599"
       y="368.4133"
       style="font-style:normal;font-variant:normal;font-weight:normal;font-stretch:normal;font-size:106.66666412px;font-family:'Courier 10 Pitch';-inkscape-font-specification:'Courier 10 Pitch, Normal';font-variant-ligatures:normal;font-variant-caps:normal;font-variant-numeric:normal;font-feature-settings:normal;text-align:start;writing-mode:lr-tb;text-anchor:start;stroke-width:0.913831">ODT</tspan></text>
</svg>